<svg width="86" height="86" viewBox="0 0 86 86" fill="none" xmlns="http://www.w3.org/2000/svg">
<mask id="mask0_45_843" style="mask-type:luminance" maskUnits="userSpaceOnUse" x="16" y="23" width="13" height="43">
<path d="M16.9268 23.1627H28.896V65.5893H16.9268V23.1627Z" fill="white"/>
</mask>
<g mask="url(#mask0_45_843)">
<path d="M27.1893 25.4992L28.6791 24.1751L22.5543 23.1817L16.9258 65.5591L26.3992 65.2903L27.1893 25.4992Z" fill="#681C29"/>
</g>
<path d="M27.1895 25.499L65.5939 23.1815L58.4478 22.3L59.9653 20.2019L22.5544 23.1815L28.6793 24.175L27.1895 25.499Z" fill="#933A4A"/>
<mask id="mask1_45_843" style="mask-type:luminance" maskUnits="userSpaceOnUse" x="26" y="23" width="44" height="53">
<path d="M26.144 23.1627H69.0428V75.4525H26.144V23.1627Z" fill="white"/>
</mask>
<g mask="url(#mask1_45_843)">
<path d="M65.5939 23.1815L59.7916 23.5318L27.1895 25.499L26.3994 65.2901L26.196 75.4919L69.0706 71.0208L65.5939 23.1815Z" fill="#7A2B39"/>
</g>
<mask id="mask2_45_843" style="mask-type:luminance" maskUnits="userSpaceOnUse" x="16" y="65" width="11" height="11">
<path d="M16.9268 65.1307H26.6027V75.4525H16.9268V65.1307Z" fill="white"/>
</mask>
<g mask="url(#mask2_45_843)">
<path d="M16.9258 65.558L26.1959 75.4919L26.3992 65.2901L16.9258 65.558Z" fill="#933A4A"/>
</g>
<path d="M38.7054 28.4839L37.1924 28.4732C37.1995 27.6203 37.4647 7.6746 46.2734 7.03677C46.6649 6.9445 47.9773 6.75638 49.4877 7.79285C51.8097 9.38654 54.7256 14.0314 55.4244 27.1133L53.9131 27.1948C53.2188 14.1864 50.3468 10.2663 48.6976 9.08733C47.5393 8.26048 46.6515 8.49967 46.6139 8.51042L46.4374 8.54177C40.2302 8.91354 38.752 23.0641 38.7054 28.4839Z" fill="#681C29"/>
<path d="M33.0626 22.3C33.0528 21.8673 32.8835 11.6467 37.0124 7.42825C38.1769 6.23948 39.5753 5.62583 41.169 5.60254C41.702 5.48608 44.042 5.10983 46.2744 6.84685C49.1885 9.11689 50.595 13.8881 50.4579 21.0342L48.9449 21.0046C49.1043 12.7611 47.0887 9.417 45.3705 8.05981C43.4928 6.58169 41.5381 7.06812 41.4557 7.09052L41.2604 7.1156C40.034 7.1156 38.9984 7.56442 38.0945 8.48623C34.41 12.2487 34.573 22.1683 34.5748 22.2677L33.0626 22.3Z" fill="#681C29"/>
<path d="M58.4487 22.3L59.9654 20.2019L60.734 22.5813L58.4487 22.3Z" fill="#681C29"/>
<path d="M39.7014 28.4839C39.7014 29.4129 38.9498 30.1663 38.0199 30.1663C37.0919 30.1663 36.3394 29.4129 36.3394 28.4839C36.3394 27.5558 37.0919 26.8024 38.0199 26.8024C38.9498 26.8024 39.7014 27.5558 39.7014 28.4839Z" fill="#681C29"/>
<path d="M56.2629 27.1518C56.2629 28.0799 55.5095 28.8342 54.5814 28.8342C53.6524 28.8342 52.8999 28.0799 52.8999 27.1518C52.8999 26.2237 53.6524 25.473 54.5814 25.473C55.5095 25.473 56.2629 26.2237 56.2629 27.1518Z" fill="#681C29"/>
<mask id="mask3_45_843" style="mask-type:luminance" maskUnits="userSpaceOnUse" x="29" y="42" width="9" height="32">
<path d="M29.1836 42.656H37.84V73.8453H29.1836V42.656Z" fill="white"/>
</mask>
<g mask="url(#mask3_45_843)">
<path d="M36.644 44.5399L37.728 43.5769L33.2748 42.8549L29.1826 73.6653L36.0707 73.47L36.644 44.5399Z" fill="#AA4054"/>
</g>
<path d="M36.645 44.5399L64.5664 42.8549L59.3714 42.2135L60.4742 40.6888L33.2749 42.8549L37.7281 43.5769L36.645 44.5399Z" fill="#DA6A7F"/>
<mask id="mask4_45_843" style="mask-type:luminance" maskUnits="userSpaceOnUse" x="35" y="42" width="33" height="39">
<path d="M35.7759 42.656H67.0234V80.9547H35.7759V42.656Z" fill="white"/>
</mask>
<g mask="url(#mask4_45_843)">
<path d="M64.567 42.8549L60.3477 43.1093L36.6448 44.539L36.0706 73.47L35.9219 80.8866L67.0942 77.6365L64.567 42.8549Z" fill="#C25166"/>
</g>
<mask id="mask5_45_843" style="mask-type:luminance" maskUnits="userSpaceOnUse" x="29" y="73" width="8" height="8">
<path d="M29.1836 73.3867H36.2347V80.9547H29.1836V73.3867Z" fill="white"/>
</mask>
<g mask="url(#mask5_45_843)">
<path d="M29.1826 73.6653L35.922 80.8866L36.0707 73.47L29.1826 73.6653Z" fill="#DA6A7F"/>
</g>
<path d="M45.0173 46.7096L43.9172 46.7016C43.9226 46.0817 44.1152 31.5808 50.5195 31.1168C50.8044 31.0496 51.7585 30.9125 52.8568 31.6668C54.5445 32.8251 56.6649 36.2024 57.1729 45.7135L56.0737 45.7726C55.5693 36.3144 53.4812 33.4648 52.2816 32.6074C51.4395 32.0063 50.7945 32.1801 50.7668 32.1882L50.6387 32.2106C46.1264 32.4811 45.0505 42.7698 45.0173 46.7096Z" fill="#AA4054"/>
<path d="M40.9145 42.2144C40.9073 41.899 40.7846 34.4681 43.7865 31.4016C44.6331 30.5372 45.6499 30.091 46.8091 30.074C47.1961 29.9889 48.8973 29.7157 50.5205 30.9788C52.6392 32.6289 53.6613 36.0976 53.5619 41.2934L52.4618 41.2719C52.5783 35.2788 51.1127 32.8475 49.863 31.8603C48.4977 30.7853 47.0769 31.1392 47.0169 31.1553L46.8745 31.1741C45.9831 31.1741 45.2306 31.5002 44.5731 32.1703C41.8945 34.9061 42.0128 42.1185 42.0146 42.1902L40.9145 42.2144Z" fill="#AA4054"/>
<path d="M59.3713 42.2135L60.4741 40.6888L61.0331 42.4186L59.3713 42.2135Z" fill="#AA4054"/>
<path d="M45.7412 46.7097C45.7412 47.3851 45.1947 47.9334 44.5193 47.9334C43.8438 47.9334 43.2974 47.3851 43.2974 46.7097C43.2974 46.0351 43.8438 45.4877 44.5193 45.4877C45.1947 45.4877 45.7412 46.0351 45.7412 46.7097Z" fill="#AA4054"/>
<path d="M57.7821 45.7413C57.7821 46.4158 57.2348 46.9641 56.5602 46.9641C55.8848 46.9641 55.3374 46.4158 55.3374 45.7413C55.3374 45.0667 55.8848 44.5211 56.5602 44.5211C57.2348 44.5211 57.7821 45.0667 57.7821 45.7413Z" fill="#AA4054"/>
<mask id="mask6_45_843" style="mask-type:luminance" maskUnits="userSpaceOnUse" x="54" y="43" width="2" height="5">
<path d="M54.3521 43.344H55.4987V47.472H54.3521V43.344Z" fill="white"/>
</mask>
<g mask="url(#mask6_45_843)">
<mask id="mask7_45_843" style="mask-type:luminance" maskUnits="userSpaceOnUse" x="47" y="43" width="13" height="13">
<path d="M55.4781 43.0788L59.1322 52.1769L51.1513 55.3822L47.498 46.2841L55.4781 43.0788Z" fill="white"/>
</mask>
<g mask="url(#mask7_45_843)">
<mask id="mask8_45_843" style="mask-type:luminance" maskUnits="userSpaceOnUse" x="47" y="43" width="13" height="13">
<path d="M55.4781 43.0788L59.1322 52.1769L51.1513 55.3822L47.498 46.2841L55.4781 43.0788Z" fill="white"/>
</mask>
<g mask="url(#mask8_45_843)">
<path d="M54.9881 47.3108C54.9854 47.3036 54.9791 47.2901 54.9836 47.2803C55.7451 44.8257 54.576 43.5483 54.5626 43.5366C54.5474 43.5187 54.5527 43.4918 54.5644 43.4784C54.5823 43.4631 54.5993 43.4649 54.6154 43.4829C54.628 43.4945 55.8257 44.8015 55.0499 47.3027C55.0419 47.3224 55.0204 47.3305 55.0033 47.3296C55.0006 47.3224 54.9908 47.3179 54.9881 47.3108Z" fill="black"/>
</g>
</g>
</g>
<mask id="mask9_45_843" style="mask-type:luminance" maskUnits="userSpaceOnUse" x="49" y="46" width="8" height="9">
<path d="M49.5359 46.096H56.8746V54.352H49.5359V46.096Z" fill="white"/>
</mask>
<g mask="url(#mask9_45_843)">
<mask id="mask10_45_843" style="mask-type:luminance" maskUnits="userSpaceOnUse" x="47" y="43" width="13" height="13">
<path d="M55.4779 43.0788L59.132 52.1769L51.151 55.3822L47.4978 46.2841L55.4779 43.0788Z" fill="white"/>
</mask>
<g mask="url(#mask10_45_843)">
<mask id="mask11_45_843" style="mask-type:luminance" maskUnits="userSpaceOnUse" x="47" y="43" width="13" height="13">
<path d="M55.4779 43.0788L59.132 52.1769L51.151 55.3822L47.4978 46.2841L55.4779 43.0788Z" fill="white"/>
</mask>
<g mask="url(#mask11_45_843)">
<path d="M54.4003 53.8539L56.7151 49.6516C56.7716 49.5468 56.7859 49.4186 56.7545 49.2995L56.1624 47.2328C56.131 47.1146 56.0504 47.0151 55.9429 46.9524L54.8482 46.3504C54.7434 46.294 54.6144 46.2796 54.4961 46.311L52.4223 46.9058C52.3031 46.9372 52.2046 47.0178 52.141 47.1253L49.8199 51.3304C49.6954 51.5525 49.7778 51.8392 50 51.9637L50.2974 52.1312C50.3001 52.2199 50.3126 52.3131 50.3493 52.4054C50.4291 52.6033 50.5751 52.7413 50.7489 52.8273C50.7489 52.9912 50.7757 53.1605 50.8411 53.3236C51.1197 54.0152 51.9009 54.3493 52.5934 54.0707C52.6991 54.0286 52.7994 53.9722 52.8872 53.9041C53.0834 54.0053 53.3208 54.025 53.5475 53.9345C53.5546 53.931 53.5546 53.931 53.5609 53.9283L53.7607 54.0367C53.99 54.1585 54.2695 54.0788 54.4003 53.8539ZM54.9244 47.5007C54.7998 47.4353 54.7613 47.2785 54.8294 47.1611C54.8966 47.0438 55.0507 46.9981 55.168 47.0662C55.2925 47.1307 55.3311 47.2875 55.2639 47.4057C55.203 47.5195 55.0489 47.5652 54.9244 47.5007Z" fill="#D9D9D9"/>
</g>
</g>
</g>
<mask id="mask12_45_843" style="mask-type:luminance" maskUnits="userSpaceOnUse" x="54" y="46" width="2" height="2">
<path d="M54.5813 46.784H55.4986V47.7013H54.5813V46.784Z" fill="white"/>
</mask>
<g mask="url(#mask12_45_843)">
<mask id="mask13_45_843" style="mask-type:luminance" maskUnits="userSpaceOnUse" x="47" y="43" width="13" height="13">
<path d="M55.4781 43.0788L59.1322 52.1769L51.1513 55.3822L47.498 46.2841L55.4781 43.0788Z" fill="white"/>
</mask>
<g mask="url(#mask13_45_843)">
<mask id="mask14_45_843" style="mask-type:luminance" maskUnits="userSpaceOnUse" x="47" y="43" width="13" height="13">
<path d="M55.4781 43.0788L59.1322 52.1769L51.1513 55.3822L47.498 46.2841L55.4781 43.0788Z" fill="white"/>
</mask>
<g mask="url(#mask14_45_843)">
<path d="M55.1968 47.0142C55.0499 46.9336 54.8644 46.9829 54.7838 47.1307C54.7041 47.2776 54.7533 47.4621 54.9002 47.5428C55.0481 47.6234 55.2326 47.5732 55.3132 47.4263C55.3939 47.2794 55.3365 47.0966 55.1968 47.0142ZM54.9289 47.4908C54.8142 47.4299 54.7712 47.283 54.8322 47.1683C54.8931 47.0536 55.04 47.0115 55.1547 47.0716C55.272 47.1396 55.3114 47.2794 55.2505 47.3941C55.1932 47.5159 55.0463 47.558 54.9289 47.4908Z" fill="black"/>
</g>
</g>
</g>
<mask id="mask15_45_843" style="mask-type:luminance" maskUnits="userSpaceOnUse" x="54" y="43" width="2" height="5">
<path d="M54.8105 43.344H55.7279V47.472H54.8105V43.344Z" fill="white"/>
</mask>
<g mask="url(#mask15_45_843)">
<mask id="mask16_45_843" style="mask-type:luminance" maskUnits="userSpaceOnUse" x="47" y="43" width="13" height="13">
<path d="M55.4779 43.0788L59.132 52.1769L51.151 55.3822L47.4978 46.2841L55.4779 43.0788Z" fill="white"/>
</mask>
<g mask="url(#mask16_45_843)">
<mask id="mask17_45_843" style="mask-type:luminance" maskUnits="userSpaceOnUse" x="47" y="43" width="13" height="13">
<path d="M55.4779 43.0788L59.132 52.1769L51.151 55.3822L47.4978 46.2841L55.4779 43.0788Z" fill="white"/>
</mask>
<g mask="url(#mask17_45_843)">
<path d="M54.9852 47.3036C54.9825 47.2964 54.9834 47.2803 54.9878 47.2695C56.1515 44.9816 55.2226 43.5259 55.21 43.5142C55.2011 43.4936 55.2002 43.4694 55.2208 43.4614C55.2396 43.4452 55.2593 43.4542 55.2745 43.4721C55.2808 43.4864 56.2411 44.9789 55.0559 47.3161C55.047 47.3367 55.0264 47.3448 55.0058 47.3367C54.9932 47.3251 54.9878 47.3107 54.9852 47.3036Z" fill="#9EC58D"/>
</g>
</g>
</g>
</svg>
